<?xml version="1.0" encoding="UTF-8"?>
<svg width="51px" height="33px" viewBox="0 0 51 33" version="1.1" xmlns="http://www.w3.org/2000/svg" xmlns:xlink="http://www.w3.org/1999/xlink">
    <!-- Generator: Sketch 51.3 (57544) - http://www.bohemiancoding.com/sketch -->
    <title>discover</title>
    <desc>Created with Sketch.</desc>
    <defs></defs>
    <g id="discover" stroke="none" stroke-width="1" fill="none" fill-rule="evenodd">
        <path d="M29.1951129,17.9951129 L35,23.8 L34.3,24.5 L28.4570965,18.6570965 C27.3611245,19.499307 25.9890338,20 24.5,20 C20.9101491,20 18,17.0898509 18,13.5 C18,9.91014913 20.9101491,7 24.5,7 C28.0898509,7 31,9.91014913 31,13.5 C31,15.2440573 30.3131152,16.827684 29.1951129,17.9951129 Z M24.5,19 C27.5375661,19 30,16.5375661 30,13.5 C30,10.4624339 27.5375661,8 24.5,8 C21.4624339,8 19,10.4624339 19,13.5 C19,16.5375661 21.4624339,19 24.5,19 Z" id="Combined-Shape" fill="#9B9B9B"></path>
    </g>
</svg>