<?xml version="1.0" encoding="UTF-8"?>
<svg width="51px" height="33px" viewBox="0 0 51 33" version="1.1" xmlns="http://www.w3.org/2000/svg" xmlns:xlink="http://www.w3.org/1999/xlink">
    <!-- Generator: Sketch 51.3 (57544) - http://www.bohemiancoding.com/sketch -->
    <title>Icon/Friends/Default</title>
    <desc>Created with Sketch.</desc>
    <defs></defs>
    <g id="Icon/Friends/Default" stroke="none" stroke-width="1" fill="none" fill-rule="evenodd">
        <path d="M28.6884937,20.5526961 C28.6884937,21.9708706 27.2940283,23.1208189 25.5741029,23.1208189 L20.3832402,23.1208189 C18.6633148,23.1208189 17.2688494,21.9708706 17.2688494,20.5526961 L17.2688494,18.8406142 C17.2688494,17.6273188 18.2921764,16.6171905 19.6638026,16.3483936 C20.599579,17.0166763 21.7415434,17.4138793 22.9786715,17.4138793 C24.2157997,17.4138793 25.3577641,17.0166763 26.2935405,16.3483936 C27.6651667,16.6171905 28.6884937,17.6273188 28.6884937,18.8406142 L28.6884937,20.5526961 L28.6884937,20.5526961 Z M18.5376987,11.7069396 C18.5376987,9.18561371 20.5259857,7.14138793 22.9786715,7.14138793 C25.4313574,7.14138793 27.4196443,9.18561371 27.4196443,11.7069396 C27.4196443,14.2282656 25.4313574,16.2724913 22.9786715,16.2724913 C20.5259857,16.2724913 18.5376987,14.2282656 18.5376987,11.7069396 L18.5376987,11.7069396 Z M29.8821488,21.5184552 C29.5312294,23.0833569 27.9936675,24.2622068 26.150795,24.2622068 L19.8065481,24.2622068 C17.7046991,24.2622068 16,22.7287522 16,20.8380431 L16,18.5552672 C16,17.0560542 17.0778875,15.7959619 18.5687856,15.3325584 C17.7573564,14.3463992 17.2688494,13.0834535 17.2688494,11.7069396 C17.2688494,8.55556757 19.8249464,6 22.9786715,6 C25.2496761,6 27.2107823,7.32518259 28.130684,9.24375839 C28.7086205,8.92519707 29.3739341,8.74375166 30.0819949,8.74375166 C32.3044861,8.74375166 34.1058173,10.5314117 34.1058173,12.7358465 C34.1058173,13.6987398 33.7615569,14.5821904 33.189727,15.2720244 C34.2403918,15.5961825 35,16.477637 35,17.5263603 L35,19.1231983 C35,20.4457793 33.7986655,21.5184552 32.3174518,21.5184552 L29.8821488,21.5184552 Z" id="Combined-Shape" fill="#9B9B9B"></path>
    </g>
</svg>