<?xml version="1.0" encoding="UTF-8"?>
<svg width="51px" height="33px" viewBox="0 0 51 33" version="1.1" xmlns="http://www.w3.org/2000/svg" xmlns:xlink="http://www.w3.org/1999/xlink">
    <!-- Generator: Sketch 51.3 (57544) - http://www.bohemiancoding.com/sketch -->
    <title>Icon/Planner/Default</title>
    <desc>Created with Sketch.</desc>
    <defs></defs>
    <g id="Icon/Planner/Default" stroke="none" stroke-width="1" fill="none" fill-rule="evenodd">
        <path d="M24.1,20.5393191 L25.4,20.5393191 L25.4,21.750929 L24.1,21.750929 L24.1,20.5393191 Z M24.1,22.962539 L25.4,22.962539 C26.1176,22.962539 26.7,22.4197377 26.7,21.750929 L26.7,20.5393191 C26.7,19.8705104 26.1176,19.3277092 25.4,19.3277092 L24.1,19.3277092 C23.3824,19.3277092 22.8,19.8705104 22.8,20.5393191 L22.8,21.750929 C22.8,22.4197377 23.3824,22.962539 24.1,22.962539 L24.1,22.962539 Z M18.9,20.5393191 L20.2,20.5393191 L20.2,21.750929 L18.9,21.750929 L18.9,20.5393191 Z M18.9,22.962539 L20.2,22.962539 C20.9176,22.962539 21.5,22.4197377 21.5,21.750929 L21.5,20.5393191 C21.5,19.8705104 20.9176,19.3277092 20.2,19.3277092 L18.9,19.3277092 C18.1824,19.3277092 17.6,19.8705104 17.6,20.5393191 L17.6,21.750929 C17.6,22.4197377 18.1824,22.962539 18.9,22.962539 L18.9,22.962539 Z M24.1,15.6928794 L25.4,15.6928794 L25.4,16.9044893 L24.1,16.9044893 L24.1,15.6928794 Z M24.1,18.1160993 L25.4,18.1160993 C26.1176,18.1160993 26.7,17.573298 26.7,16.9044893 L26.7,15.6928794 C26.7,15.0240707 26.1176,14.4812695 25.4,14.4812695 L24.1,14.4812695 C23.3824,14.4812695 22.8,15.0240707 22.8,15.6928794 L22.8,16.9044893 C22.8,17.573298 23.3824,18.1160993 24.1,18.1160993 L24.1,18.1160993 Z M18.9,15.6928794 L20.2,15.6928794 L20.2,16.9044893 L18.9,16.9044893 L18.9,15.6928794 Z M18.9,18.1160993 L20.2,18.1160993 C20.9176,18.1160993 21.5,17.573298 21.5,16.9044893 L21.5,15.6928794 C21.5,15.0240707 20.9176,14.4812695 20.2,14.4812695 L18.9,14.4812695 C18.1824,14.4812695 17.6,15.0240707 17.6,15.6928794 L17.6,16.9044893 C17.6,17.573298 18.1824,18.1160993 18.9,18.1160993 L18.9,18.1160993 Z M33.2,10.8464397 L16.3,10.8464397 L16.3,9.63482978 C16.3,8.9660211 16.8824,8.42321985 17.6,8.42321985 L20.2,8.42321985 L20.2,9.02902481 C20.2,9.36403496 20.49055,9.63482978 20.85,9.63482978 C21.20945,9.63482978 21.5,9.36403496 21.5,9.02902481 L21.5,8.42321985 L28,8.42321985 L28,9.02902481 C28,9.36403496 28.29055,9.63482978 28.65,9.63482978 C29.00945,9.63482978 29.3,9.36403496 29.3,9.02902481 L29.3,8.42321985 L31.9,8.42321985 C32.6176,8.42321985 33.2,8.9660211 33.2,9.63482978 L33.2,10.8464397 L33.2,10.8464397 Z M33.2,22.962539 C33.2,23.6313476 32.6176,24.1741489 31.9,24.1741489 L17.6,24.1741489 C16.8824,24.1741489 16.3,23.6313476 16.3,22.962539 L16.3,12.0580496 L33.2,12.0580496 L33.2,22.962539 L33.2,22.962539 Z M31.9,7.21160993 L29.3,7.21160993 L29.3,6.60580496 C29.3,6.27140062 29.00945,6 28.65,6 C28.29055,6 28,6.27140062 28,6.60580496 L28,7.21160993 L21.5,7.21160993 L21.5,6.60580496 C21.5,6.27140062 21.20945,6 20.85,6 C20.49055,6 20.2,6.27140062 20.2,6.60580496 L20.2,7.21160993 L17.6,7.21160993 C16.16415,7.21160993 15,8.29660661 15,9.63482978 L15,22.962539 C15,24.3007621 16.16415,25.3857588 17.6,25.3857588 L31.9,25.3857588 C33.33585,25.3857588 34.5,24.3007621 34.5,22.962539 L34.5,9.63482978 C34.5,8.29660661 33.33585,7.21160993 31.9,7.21160993 L31.9,7.21160993 Z M29.3,15.6928794 L30.6,15.6928794 L30.6,16.9044893 L29.3,16.9044893 L29.3,15.6928794 Z M29.3,18.1160993 L30.6,18.1160993 C31.3176,18.1160993 31.9,17.573298 31.9,16.9044893 L31.9,15.6928794 C31.9,15.0240707 31.3176,14.4812695 30.6,14.4812695 L29.3,14.4812695 C28.5824,14.4812695 28,15.0240707 28,15.6928794 L28,16.9044893 C28,17.573298 28.5824,18.1160993 29.3,18.1160993 L29.3,18.1160993 Z M29.3,20.5393191 L30.6,20.5393191 L30.6,21.750929 L29.3,21.750929 L29.3,20.5393191 Z M29.3,22.962539 L30.6,22.962539 C31.3176,22.962539 31.9,22.4197377 31.9,21.750929 L31.9,20.5393191 C31.9,19.8705104 31.3176,19.3277092 30.6,19.3277092 L29.3,19.3277092 C28.5824,19.3277092 28,19.8705104 28,20.5393191 L28,21.750929 C28,22.4197377 28.5824,22.962539 29.3,22.962539 L29.3,22.962539 Z" id="Fill-168" stroke="#FFFFFF" stroke-width="0.2" fill="#9B9B9B"></path>
    </g>
</svg>