<?xml version="1.0" encoding="UTF-8"?>
<svg width="51px" height="33px" viewBox="0 0 51 33" version="1.1" xmlns="http://www.w3.org/2000/svg" xmlns:xlink="http://www.w3.org/1999/xlink">
    <!-- Generator: Sketch 51.3 (57544) - http://www.bohemiancoding.com/sketch -->
    <title>Icon/Profile/Default</title>
    <desc>Created with Sketch.</desc>
    <defs></defs>
    <g id="Icon/Profile/Default" stroke="none" stroke-width="1" fill="none" fill-rule="evenodd">
        <path d="M33.40625,15.6304606 L29.84375,15.6304606 C29.5154063,15.6304606 29.25,15.8701521 29.25,16.1654862 C29.25,16.4613554 29.5154063,16.7005118 29.84375,16.7005118 L33.40625,16.7005118 C33.7345938,16.7005118 34,16.4613554 34,16.1654862 C34,15.8701521 33.7345938,15.6304606 33.40625,15.6304606 L33.40625,15.6304606 Z M33.40625,12.4203071 L28.65625,12.4203071 C28.3279063,12.4203071 28.0625,12.6594635 28.0625,12.9553327 C28.0625,13.2512018 28.3279063,13.4903583 28.65625,13.4903583 L33.40625,13.4903583 C33.7345938,13.4903583 34,13.2512018 34,12.9553327 C34,12.6594635 33.7345938,12.4203071 33.40625,12.4203071 L33.40625,12.4203071 Z M33.40625,18.8406142 L29.84375,18.8406142 C29.5154063,18.8406142 29.25,19.0803057 29.25,19.3756398 C29.25,19.6715089 29.5154063,19.9106654 29.84375,19.9106654 L33.40625,19.9106654 C33.7345938,19.9106654 34,19.6715089 34,19.3756398 C34,19.0803057 33.7345938,18.8406142 33.40625,18.8406142 L33.40625,18.8406142 Z M28.65625,10.2802047 L33.40625,10.2802047 C33.7345938,10.2802047 34,10.0410483 34,9.74517914 C34,9.44984501 33.7345938,9.21015355 33.40625,9.21015355 L28.65625,9.21015355 C28.3279063,9.21015355 28.0625,9.44984501 28.0625,9.74517914 C28.0625,10.0410483 28.3279063,10.2802047 28.65625,10.2802047 L28.65625,10.2802047 Z M26.875,19.6431526 C26.875,20.9726912 25.5699375,22.0507677 23.9602813,22.0507677 L19.1022188,22.0507677 C17.4925625,22.0507677 16.1875,20.9726912 16.1875,19.6431526 L16.1875,18.0380758 C16.1875,16.9006114 17.1452188,15.9536161 18.4289063,15.701619 C19.3046875,16.328134 20.3734375,16.7005118 21.53125,16.7005118 C22.6890625,16.7005118 23.7578125,16.328134 24.6335938,15.701619 C25.9172813,15.9536161 26.875,16.9006114 26.875,18.0380758 L26.875,19.6431526 L26.875,19.6431526 Z M17.375,11.3502559 C17.375,8.98651285 19.2358125,7.07005118 21.53125,7.07005118 C23.8266875,7.07005118 25.6875,8.98651285 25.6875,11.3502559 C25.6875,13.713999 23.8266875,15.6304606 21.53125,15.6304606 C19.2358125,15.6304606 17.375,13.713999 17.375,11.3502559 L17.375,11.3502559 Z M25.6584063,14.7492735 C26.4178125,13.8247493 26.875,12.6407376 26.875,11.3502559 C26.875,8.3958446 24.4827813,6 21.53125,6 C18.5797188,6 16.1875,8.3958446 16.1875,11.3502559 C16.1875,12.6407376 16.6446875,13.8247493 17.4040938,14.7492735 C16.0087813,15.1837143 15,16.3650508 15,17.770563 L15,19.9106654 C15,21.6832052 16.5954063,23.1208189 18.5625,23.1208189 L24.5,23.1208189 C26.4670938,23.1208189 28.0625,21.6832052 28.0625,19.9106654 L28.0625,17.770563 C28.0625,16.3650508 27.0537188,15.1837143 25.6584063,14.7492735 L25.6584063,14.7492735 Z" id="Fill-176" fill="#9B9B9B"></path>
    </g>
</svg>