<?xml version="1.0" encoding="UTF-8"?>
<svg width="40px" height="40px" viewBox="0 0 40 40" version="1.1" xmlns="http://www.w3.org/2000/svg" xmlns:xlink="http://www.w3.org/1999/xlink">
    <!-- Generator: Sketch 51.3 (57544) - http://www.bohemiancoding.com/sketch -->
    <title>Search</title>
    <desc>Created with Sketch.</desc>
    <defs>
        <linearGradient x1="100%" y1="100%" x2="0%" y2="0%" id="linearGradient-1">
            <stop stop-color="#FE9A8B" offset="0%"></stop>
            <stop stop-color="#FD868C" offset="37.0475925%"></stop>
            <stop stop-color="#F9748F" offset="77.5550064%"></stop>
            <stop stop-color="#F78CA0" offset="100%"></stop>
        </linearGradient>
    </defs>
    <g id="Symbols" stroke="none" stroke-width="1" fill="none" fill-rule="evenodd">
        <g id="Navigation/Top/Default" transform="translate(-329.000000, 0.000000)">
            <g id="Search/Default" transform="translate(329.000000, 0.000000)">
                <circle id="Line" fill="url(#linearGradient-1)" cx="20" cy="20" r="20"></circle>
                <path d="M24.2965614,24.7913479 L23.9055704,24.3774377 L24.7441435,23.6054828 L25.1351345,24.019393 L30.609009,29.814135 L31,30.2280451 L30.1614269,31 L29.7704359,30.5860899 L24.2965614,24.7913479 Z M19.4529261,25.7147183 C15.3367887,25.7147183 12,22.4207164 12,18.3573592 C12,14.2940019 15.3367887,11 19.4529261,11 C23.5690636,11 26.9058523,14.2940019 26.9058523,18.3573592 C26.9058523,22.4207164 23.5690636,25.7147183 19.4529261,25.7147183 Z M19.4529261,24.5828169 C22.9358117,24.5828169 25.7592482,21.7955845 25.7592482,18.3573592 C25.7592482,14.9191338 22.9358117,12.1319014 19.4529261,12.1319014 C15.9700406,12.1319014 13.146604,14.9191338 13.146604,18.3573592 C13.146604,21.7955845 15.9700406,24.5828169 19.4529261,24.5828169 Z" id="Combined-Shape" fill="#FFFFFF"></path>
            </g>
        </g>
    </g>
</svg>